<svg xmlns="http://www.w3.org/2000/svg" width="1em" height="1em" viewBox="0 0 48 48"><path fill="none" stroke="currentColor" stroke-linecap="round" stroke-linejoin="round" d="M24.283 28.04c.518.435 1.077.635 2.333.635h.637a1.88 1.88 0 0 0 1.876-1.88h0c0-1.038-.84-1.88-1.876-1.88H25.98a1.88 1.88 0 0 1-1.876-1.88h0c0-1.038.84-1.88 1.876-1.88h.637c1.256 0 1.815.2 2.333.635m-16.96-2.975v8.441c0 .784.635 1.419 1.418 1.419h.426M10.5 21.156h2.979m7.998 2.837a2.837 2.837 0 0 0-2.837-2.837h0a2.837 2.837 0 0 0-2.838 2.837v1.844a2.837 2.837 0 0 0 2.838 2.838h0a2.837 2.837 0 0 0 2.837-2.838m0 2.838v-11.35m10.348 6.668a2.837 2.837 0 0 1 2.838-2.837h0a2.837 2.837 0 0 1 2.837 2.837v1.844a2.837 2.837 0 0 1-2.837 2.838h0a2.837 2.837 0 0 1-2.838-2.838m0 2.838v-11.35"/><rect width="37" height="37" x="5.5" y="5.5" fill="none" stroke="currentColor" stroke-linecap="round" stroke-linejoin="round" rx="4" ry="4"/></svg>