<svg xmlns="http://www.w3.org/2000/svg" width="1em" height="1em" viewBox="0 0 48 48"><path fill="none" stroke="currentColor" stroke-linecap="round" stroke-linejoin="round" d="M42.34 22.934c.663 7.436-.816 10.903-3.032 12.558c-5.108 3.815-11.086 5.437-16.474 5.437c-9.668 0-17.334-5.437-17.334-16.677c0-9.344 6.26-16.872 18.381-17.176c7.917-.198 17.472 4.755 18.46 15.857z"/><path fill="none" stroke="currentColor" stroke-linecap="round" stroke-linejoin="round" d="M21.105 24.252c.092 1.414-.163 2.588-.804 3.214c-1.267 1.238-2.532 2.287-5.095 2.258c-2.644-.03-5.9-1.952-5.9-5.472c0-2.928 1.92-5.302 5.9-5.302c4.08 0 5.682 1.947 5.899 5.302m16.91.358c.013 1.282-.078 2.32-.838 2.963c-1.344 1.138-3.873 1.765-5.698 1.741c-2.845 0-4.173-1.88-4.173-4.84c0-2.423.4-3.51 1.812-4.25c.804-.422 1.985-.931 3.35-.927c2.943.01 5.516 2.168 5.547 5.313"/></svg>