<svg xmlns="http://www.w3.org/2000/svg" width="1em" height="1em" viewBox="0 0 512 512"><path fill="currentColor" fill-rule="evenodd" d="M256 426.667c94.257 0 170.667-76.41 170.667-170.667S350.257 85.333 256 85.333S85.333 161.743 85.333 256c0 49.272 20.88 93.667 54.274 124.82l8.972-26.587q6.891 3.264 12.33 3.264q7.012 0 10.155-4.956q3.142-4.836 5.44-19.584l16.095-101.472h-20.768l4.135-27.211h20.949l.623-3.927q3.021-19.342 5.198-24.902q10.154-26.112 42.188-26.112q12.693 0 25.991 4.715l-9.188 30.1q-7.977-2.901-12.934-2.901q-5.923 0-9.067 4.473q-3.143 4.352-4.835 15.231l-.526 3.323h19.493l-.055-.089h39.65l22.122 35.782l32.035-35.782h43.639l-59.113 62.497l39.771 64.311h-39.771l-24.298-39.771l-35.781 39.771h-43.398l62.497-66.728l-20.38-32.78h-40.722l-16.076 101.472q-2.781 17.65-5.319 25.991q-2.538 8.462-6.649 14.022q-12.089 16.441-35.661 16.441q-10.891 0-20.464-3.015c29.722 25.124 68.15 40.271 110.115 40.271m0 42.666c117.821 0 213.333-95.512 213.333-213.333S373.821 42.667 256 42.667S42.667 138.179 42.667 256S138.179 469.333 256 469.333" clip-rule="evenodd"/></svg>