<svg xmlns="http://www.w3.org/2000/svg" width="1em" height="1em" viewBox="0 0 48 48"><path fill="none" stroke="currentColor" stroke-linecap="round" stroke-linejoin="round" d="M8.61 33.196V25.7l5.071 7.496V25.7m14.405 2.425l-1.654 5.071l-1.543-5.071l-1.433 5.071l-1.654-5.071m8.526 4.63c.33.33.771.33 1.543.33h.33c.662 0 1.213-.55 1.213-1.212h0c0-.661-.55-1.212-1.212-1.212h-.882a1.223 1.223 0 0 1-1.213-1.213h0c0-.661.551-1.213 1.213-1.213h.33c.882 0 1.213.11 1.544.331m-13.761 3.638c-.33.551-.992.992-1.543.992h0c-.993 0-1.874-.882-1.874-1.874v-1.213c0-.992.881-1.874 1.874-1.874h0c.992 0 1.874.882 1.874 1.874v.662h-3.748M13.35 17.23a2.447 2.447 0 0 0-2.425-2.426h0A2.447 2.447 0 0 0 8.5 17.23v2.426c0 1.323 1.102 2.315 2.425 2.315h0c1.323 0 2.426-1.103 2.426-2.315h-2.426m4.726-.773c0-.992.772-1.764 1.764-1.764h0m-1.764 0v4.851m5.119 0a1.74 1.74 0 0 1-1.764-1.764v-1.102c0-.993.772-1.764 1.764-1.764h0c.992 0 1.764.771 1.764 1.764v1.102c0 .992-.772 1.764-1.764 1.764m3.894-4.74v2.976c0 .992.772 1.764 1.764 1.764h0c.992 0 1.764-.772 1.764-1.764v-2.977m0 2.977v1.764m5.695 0v-2.977c0-.992-.772-1.764-1.764-1.764h0c-.992 0-1.764.772-1.764 1.764m0 2.977v-4.851m9.141 1.764c0-.992-.772-1.764-1.764-1.764h0c-.992 0-1.764.772-1.764 1.764v1.102c0 .993.772 1.764 1.764 1.764h0c.992 0 1.764-.772 1.764-1.764m0 1.985v-7.056"/><path fill="none" stroke="currentColor" stroke-linecap="round" stroke-linejoin="round" d="M38.5 5.5h-29a4 4 0 0 0-4 4v29a4 4 0 0 0 4 4h29a4 4 0 0 0 4-4v-29a4 4 0 0 0-4-4"/></svg>