<svg xmlns="http://www.w3.org/2000/svg" width="1em" height="1em" viewBox="0 0 16 16"><path fill="currentColor" fill-rule="evenodd" d="M14 8c0 .542-.294 1.043-.767 1.309l-3.252 1.829a5.5 5.5 0 0 0-.172-1.05l2.935-1.651a.502.502 0 0 0 .001-.873L4.744 3.063A.5.5 0 0 0 4 3.5v2.525a5.4 5.4 0 0 0-1 .188V3.5a1.502 1.502 0 0 1 2.233-1.309l8 4.5c.473.266.767.767.767 1.309m-5 3.5a4.5 4.5 0 1 1-9 0a4.5 4.5 0 0 1 9 0m-3.792 0l1.294-1.294a.5.5 0 0 0-.707-.707l-1.294 1.294l-1.294-1.294a.5.5 0 0 0-.707.707L3.794 11.5L2.5 12.731a.5.5 0 0 0 .707.707l1.294-1.231l1.294 1.294a.5.5 0 0 0 .707-.707z" clip-rule="evenodd"/></svg>