<svg xmlns="http://www.w3.org/2000/svg" width="1em" height="1em" viewBox="0 0 48 48"><g fill="currentColor" fill-rule="evenodd" clip-rule="evenodd"><path d="M24.753 16.357c1.03-1.18 2.498-2.176 4.065-2.616c1.547-.434 3.15-.319 4.578.64l.002.002a5.92 5.92 0 0 1 2.597 4.665c.092 2.499-1.032 4.84-2.838 7.063a6 6 0 0 0-7.123 6.524l-.753.587q-.652.507-1.276.997c-.49-.391-.997-.789-1.513-1.193c-2.105-1.651-4.36-3.42-6.275-5.396c-2.58-2.665-4.318-5.493-4.212-8.583a5.92 5.92 0 0 1 2.596-4.664c1.429-.954 3.033-1.07 4.581-.637c1.567.438 3.035 1.432 4.064 2.611l.754.864zM18.5 18.5a1 1 0 1 0 0 2c.161 0 .37.053.548.244c.18.194.452.666.452 1.756c0 1.22.394 2.165 1.168 2.766c.725.563 1.615.689 2.332.689V29.5a1 1 0 1 0 2 0v-3.546c.717 0 1.607-.125 2.332-.688c.774-.6 1.168-1.546 1.168-2.766c0-1.09.272-1.562.452-1.756a.74.74 0 0 1 .548-.244a1 1 0 1 0 0-2c-.589 0-1.38.199-2.014.884c-.633.681-.986 1.71-.986 3.116c0 .777-.231 1.06-.395 1.186c-.212.166-.572.268-1.105.268V19.5a1 1 0 1 0-2 0v4.454c-.533 0-.893-.102-1.105-.268c-.164-.126-.395-.409-.395-1.186c0-1.407-.353-2.435-.986-3.116A2.74 2.74 0 0 0 18.5 18.5"/><path d="M32 36a4 4 0 1 0 0-8a4 4 0 0 0 0 8m-1-3v1.5h2V33h1.5v-2H33v-1.5h-2V31h-1.5v2z"/><path d="M39 6H9a3 3 0 0 0-3 3v30a3 3 0 0 0 3 3h30a3 3 0 0 0 3-3V9a3 3 0 0 0-3-3m-1.007 12.975c.109 2.946-1.118 5.576-2.886 7.891A6 6 0 1 1 26.64 34.7l-.205.16c-.637.496-1.246.97-1.81 1.421l-.63.506l-.626-.51a143 143 0 0 0-2.02-1.603c-2.13-1.67-4.55-3.568-6.568-5.652c-2.7-2.788-4.91-6.126-4.775-10.044v-.002a7.91 7.91 0 0 1 3.485-6.256c2.002-1.336 4.23-1.458 6.23-.899a10 10 0 0 1 2.161.9c.775.433 1.49.96 2.117 1.544a11 11 0 0 1 2.114-1.544a10 10 0 0 1 2.165-.905c2-.56 4.23-.439 6.232.905a7.91 7.91 0 0 1 3.483 6.255"/></g></svg>