<svg xmlns="http://www.w3.org/2000/svg" width="1em" height="1em" viewBox="0 0 24 24"><g fill="none" stroke="currentColor" stroke-linecap="round" stroke-width="1.5"><path stroke-linejoin="round" d="M10.008 10L7.43 7.953c-.3-.252-.45-.377-.415-.507c.034-.13.227-.164.612-.23L8.8 7.01c.447-.078.503-.193.304-.6L7.86 3.87c-.246-.504-.37-.756-.257-.862c.113-.107.355.032.84.31l2.091 1.202c.36.207.396.197.582-.177l.844-1.697c.22-.442.33-.663.476-.645c.147.018.2.26.307.742l.68 3.08c.09.404.194.46.574.296l2.269-.978c.395-.17.592-.255.692-.157s.02.299-.14.7L15.006 10m-2.512 0l-.5-1.5"/><path d="M6.745 13H2m.012-4.996c.454.096 1.648.576 2.52 2.076c.628 1.007 1.189 2.251 2.213 2.92c.768.501 1.412.57 2.23.986C9.99 14.58 10.473 15.5 10.468 17c0 1 .13 2.02-.186 2.57c-.362.63-2.585.428-2.785.428m0 0c0 1.102-.806 2.002-2 2.002c-1.096 0-1.991-.9-1.991-2.002m3.99 0c0-1.048-.806-1.998-2-1.998a2 2 0 0 0-1.99 1.998m0 0H2m15.255-7.001H22m-4.745 0c-.768.502-1.412.57-2.23.987c-1.016.594-1.498 1.514-1.493 3.015c0 1-.13 2.02.186 2.57c.362.63 2.585.428 2.785.428m.752-7c1.024-.669 1.585-1.913 2.213-2.92c.872-1.5 2.066-1.981 2.52-2.077m-5.485 11.997c0 1.103.806 2.003 2 2.003c1.096 0 1.991-.9 1.991-2.003m-3.99 0c0-1.048.805-1.998 2-1.998a2 2 0 0 1 1.99 1.998m0 0H22"/></g></svg>